# xmcd CD database file
#
# Track frame offsets:
#	150
#	18739
#	52468
#	71094
#	85531
#	102022
#	122930
#	137299
#	168200
#	185413
#	205118
#	235550
#	256908
#	270915
#	292940
#	326775
#
# Disc length: 4652 seconds
#
# Revision: 0
# Processed by: cddbd v1.5.2PL0 Copyright (c) Steve Scherf et al.
# Submitted via: CDex 2.12
#
DISCID=db122a10
DTITLE=Musica Jazz (Magazine) - Phineas Newborn Jr. - Piano Magic
DYEAR=2019
DGENRE=Jazz
TTITLE0=Barbados
TTITLE1=All the things you are
TTITLE2=The more I see you
TTITLE3=Celia
TTITLE4=Daahoud
TTITLE5=Newport blues
TTITLE6=I'm beginning to see the light
TTITLE7=Afternoon in Paris
TTITLE8=Cheryl
TTITLE9=Manteca
TTITLE10=Lush life
TTITLE11=Daahoud
TTITLE12=Oleo
TTITLE13=Juicy Lucy
TTITLE14=For Carl
TTITLE15=Cabu
EXTD=YEAR: 2019
EXTT0=
EXTT1=
EXTT2=
EXTT3=
EXTT4=
EXTT5=
EXTT6=
EXTT7=
EXTT8=
EXTT9=
EXTT10=
EXTT11=
EXTT12=
EXTT13=
EXTT14=
EXTT15=
PLAYORDER=
